<?xml version="1.0" standalone="no"?>
<!DOCTYPE svg PUBLIC "-//W3C//DTD SVG 20010904//EN"
 "http://www.w3.org/TR/2001/REC-SVG-20010904/DTD/svg10.dtd">
<svg version="1.0" xmlns="http://www.w3.org/2000/svg"
 width="512.000000pt" height="444.000000pt" viewBox="0 0 512.000000 444.000000"
 preserveAspectRatio="xMidYMid meet">
<metadata>
Created by potrace 1.16, written by Peter Selinger 2001-2019
</metadata>
<g transform="translate(0.000000,444.000000) scale(0.100000,-0.100000)"
fill="#000000" stroke="none">
<path d="M1924 4430 c-168 -25 -275 -142 -297 -325 -23 -193 29 -281 151 -254
69 15 92 62 92 186 0 40 5 84 12 98 25 56 15 55 677 55 452 0 617 -3 636 -12
40 -18 55 -57 56 -145 0 -92 14 -139 50 -165 32 -24 110 -26 144 -4 43 28 50
53 49 176 -1 98 -4 124 -26 177 -40 99 -91 150 -191 192 l-62 26 -620 2 c-341
0 -643 -2 -671 -7z"/>
<path d="M245 3606 c-94 -29 -160 -84 -206 -168 l-34 -63 0 -480 0 -480 23
-44 c37 -69 106 -136 170 -164 36 -16 386 -99 972 -229 l915 -204 5 -209 c5
-229 9 -244 65 -267 43 -19 767 -19 810 0 56 23 60 38 65 267 l5 209 915 204
c586 130 936 213 972 229 64 28 133 95 170 164 l23 44 0 480 0 480 -34 63
c-38 70 -92 120 -167 154 l-49 23 -2290 2 c-1821 1 -2298 -1 -2330 -11z m4569
-240 c68 -28 66 -16 66 -472 l0 -412 -25 -30 c-15 -18 -41 -34 -67 -40 -53
-14 -1744 -392 -1751 -392 -3 0 -7 32 -9 71 -3 65 -6 74 -36 100 l-32 29 -400
0 -400 0 -32 -29 c-30 -26 -33 -35 -36 -100 -2 -39 -6 -71 -9 -71 -7 0 -1698
378 -1751 392 -26 6 -52 22 -67 40 l-25 30 0 409 c0 453 -1 446 65 475 46 20
4460 20 4509 0z m-2024 -1611 l0 -225 -230 0 -230 0 0 225 0 225 230 0 230 0
0 -225z"/>
<path d="M163 1970 c-21 -13 -35 -31 -42 -57 -15 -51 -15 -1549 -1 -1624 29
-150 136 -253 291 -279 89 -14 4209 -14 4298 0 155 26 262 129 291 279 14 75
14 1573 -1 1624 -13 48 -57 77 -117 77 -37 0 -50 -6 -78 -34 l-34 -34 0 -773
c0 -438 -4 -791 -10 -814 -5 -24 -20 -49 -37 -62 l-28 -23 -2135 0 -2135 0
-28 23 c-17 13 -32 38 -37 62 -6 23 -10 376 -10 814 l0 773 -34 34 c-28 28
-41 34 -77 34 -26 0 -57 -8 -76 -20z"/>
</g>
</svg>
