<svg width="132" height="51" viewBox="0 0 132 51" fill="none" xmlns="http://www.w3.org/2000/svg">
<path fill-rule="evenodd" clip-rule="evenodd" d="M132 0H85.3101L79.0067 11.3791H125.697L132 0ZM121.026 19.8104H74.3363L68.0329 31.1896H114.723L121.026 19.8104ZM110.052 39.6209H63.3624L57.059 51H103.749L110.052 39.6209Z" fill="#7B7F82"/>
<path fill-rule="evenodd" clip-rule="evenodd" d="M74.941 0H28.2511L21.9477 11.3791H68.6376L74.941 0ZM63.9672 19.8104H17.2772L10.9739 31.1896H57.6638L63.9672 19.8104ZM52.9933 39.6209H6.30338L0 51H46.6899L52.9933 39.6209Z" fill="#7B7F82"/>
<path fill-rule="evenodd" clip-rule="evenodd" d="M68.6375 11.3791L74.9409 0H57.3536H54.0987L37.1401 11.3791H51.004L28.8956 51H46.6898L68.6375 11.3791Z" fill="#B0B1B3"/>
</svg>
