<?xml version="1.0" encoding="utf-8"?>
<!-- Generator: Adobe Illustrator 24.0.1, SVG Export Plug-In . SVG Version: 6.00 Build 0)  -->
<svg version="1.1" id="Layer_1" xmlns="http://www.w3.org/2000/svg" xmlns:xlink="http://www.w3.org/1999/xlink" x="0px" y="0px"
	 viewBox="0 0 564 78.94" style="enable-background:new 0 0 564 78.94;" xml:space="preserve">
<style type="text/css">
	.st0{fill:#AFB1B3;}
	.st1{fill:#1171A4;}
</style>
<g>
	<g>
		<g>
			<path class="st0" d="M9.71,65.36l-3.57,6.66c-0.46,0.86-1.39,2.39-1.1,3.05c0.31,0.64,1.45,0.54,2.04,0.54h3.34
				c0.37,0,1.45,0.1,2.39-0.52c0.85-0.57,1.37-1.74,2.03-2.97l3.63-6.76h4.12l-4.32,8.05c-0.82,1.53-1.48,3.04-3.36,4.28
				c-2,1.32-3.64,1.25-5.41,1.25H3.42c-1.45,0-2.68,0.12-3.29-1.27c-0.57-1.33,0.81-3.64,1.38-4.71l4.08-7.61H9.71z"/>
			<path class="st0" d="M58.25,68.68h-5.84l-5.5,10.26H42.8l5.5-10.26h-5.72l1.78-3.32h15.67L58.25,68.68z"/>
			<path class="st0" d="M86.04,65.36l-7.29,13.58h-4.11l7.29-13.58H86.04z"/>
			<path class="st0" d="M112.64,65.36l-5.5,10.25h9.28l-1.78,3.32h-13.39l7.29-13.58H112.64z"/>
			<path class="st0" d="M147.93,65.36l-7.29,13.58h-4.11l7.29-13.58H147.93z"/>
			<path class="st0" d="M183.64,68.68h-5.84l-5.5,10.26h-4.11l5.5-10.26h-5.72l1.78-3.32h15.67L183.64,68.68z"/>
			<path class="st0" d="M211.26,65.36l1.51,5.55l7.61-5.55h4.82l-12.3,8.91l-2.51,4.67h-4.08l2.57-4.79l-2.55-8.79H211.26z"/>
			<path class="st0" d="M280.72,70.05c0.55-1.21,0.12-1.35-0.99-1.37h-4.6c-0.57,0-1.36-0.1-2.11,0.61
				c-0.25,0.22-0.53,0.79-0.53,1.01c0.06,0.61,1.3,0.56,2.15,0.56l4.98,0.12c1.22,0.05,3.93-0.17,3.95,1.57
				c-0.01,1.08-1.38,3.54-2.64,4.64c-1.98,1.74-5.08,1.76-6.47,1.76h-6.78c-0.81,0-2.58-0.12-2.78-1.45
				c-0.08-0.67,0.65-2.13,1.15-3.02h4.06c-0.57,1.25,0.21,1.15,0.99,1.15h4.82c0.57,0,1.75,0.03,2.37-0.42
				c0.29-0.22,0.53-0.67,0.56-1.05c0.03-0.56-1.08-0.47-2.22-0.51l-5.3-0.12c-1.31-0.02-3.53,0.02-3.51-1.6
				c0-1.06,1.54-3.93,2.73-4.99c1.95-1.72,3.84-1.57,5.75-1.57h7.02c1.1,0,2.61,0.2,2.75,1.48c0.1,0.69-0.93,2.51-1.3,3.2H280.72z"
				/>
			<path class="st0" d="M324.89,65.36l-1.78,3.32h-10.57l-1.15,2.14h10.03l-1.46,2.72h-10.03l-1.11,2.07h10.83l-1.78,3.32h-14.94
				l7.29-13.58H324.89z"/>
			<path class="st0" d="M362.68,66.54c0.26,1.06-1.34,4.13-2.21,5.18c-1.03,1.3-1.97,1.53-3.13,1.91c0.41,0.15,0.67,0.25,0.87,0.42
				c0.85,0.78-0.36,2.75-0.96,3.86l-0.55,1.03h-4.12c0.83-1.55,1.53-2.7,1.28-3.14c-0.2-0.44-1.41-0.39-1.88-0.39h-5.68l-1.89,3.53
				h-4.11l7.29-13.58h11.77C360.82,65.36,362.39,65.29,362.68,66.54z M354.07,71.93c0.57,0,1.83,0.05,2.65-0.64
				c0.41-0.35,1.03-1.5,1.03-1.92c0.01-0.78-1.34-0.68-1.92-0.68h-5.94l-1.74,3.24H354.07z"/>
			<path class="st0" d="M389.4,65.36l-0.16,9.99l10.67-9.99h4.47l-14.5,13.58h-5.06l0.15-13.58H389.4z"/>
			<path class="st0" d="M430.18,65.36l-7.29,13.58h-4.11l7.29-13.58H430.18z"/>
			<path class="st0" d="M463.23,70.25c0.74-1.5,0.11-1.55-1.2-1.57h-4.54c-0.76,0-1.74-0.12-2.73,0.84c-0.57,0.57-2.76,4.59-2.7,5.2
				c0.09,1.03,1.16,0.89,2.13,0.89h3.54c1.18,0,2.08,0.08,2.99-0.72c0.29-0.27,0.48-0.59,0.84-1.2h4.13
				c-0.31,0.57-1.56,3.15-3.07,4.15c-1.62,1.1-3.19,1.1-4.33,1.1h-6.78c-1.67,0-3.69,0.02-4.27-1.22c-0.58-1.28,0.23-2.75,1.35-4.84
				l0.83-1.55c0.92-1.72,1.78-3.44,3.73-4.72c1.88-1.21,4.31-1.25,5.74-1.25h6.63c1.7,0,3.02,0.15,3.08,1.7
				c0.01,0.57-0.77,2.26-1.29,3.19H463.23z"/>
			<path class="st0" d="M507.3,65.36l-1.78,3.32h-10.57l-1.15,2.14h10.03l-1.46,2.72h-10.04l-1.11,2.07h10.83l-1.78,3.32h-14.94
				l7.29-13.58H507.3z"/>
			<path class="st0" d="M539.7,70.05c0.55-1.21,0.12-1.35-0.99-1.37h-4.6c-0.57,0-1.36-0.1-2.11,0.61
				c-0.25,0.22-0.53,0.79-0.53,1.01c0.06,0.61,1.3,0.56,2.15,0.56l4.98,0.12c1.22,0.05,3.93-0.17,3.95,1.57
				c-0.01,1.08-1.38,3.54-2.64,4.64c-1.98,1.74-5.08,1.76-6.47,1.76h-6.78c-0.81,0-2.58-0.12-2.78-1.45
				c-0.08-0.67,0.65-2.13,1.15-3.02h4.06c-0.57,1.25,0.21,1.15,0.99,1.15h4.82c0.57,0,1.75,0.03,2.37-0.42
				c0.29-0.22,0.53-0.67,0.56-1.05c0.03-0.56-1.08-0.47-2.22-0.51l-5.3-0.12c-1.31-0.02-3.53,0.02-3.51-1.6
				c0-1.06,1.54-3.93,2.73-4.99c1.95-1.72,3.84-1.57,5.75-1.57h7.02c1.1,0,2.61,0.2,2.75,1.48c0.1,0.69-0.93,2.51-1.3,3.2H539.7z"/>
		</g>
	</g>
	<g>
		<path class="st1" d="M69.32,0.34c4.91,0,11.77-0.32,13.71,3.99c1.64,3.77-1.01,8.57-3.78,13.59l-4.73,8.57
			c-2.26,4.1-5.16,9.54-10.85,13.21c-6.13,3.88-14.15,4.04-18.52,4.04H7.5l23.96-43.4H69.32z M46.37,33.13
			c4.75,0,7.99,0.27,12.06-3.18c2.29-1.99,8.84-13.96,8.92-15.96c0.04-3.4-4.91-3.02-9.55-3.02H38.76L26.53,33.13H46.37z"/>
		<path class="st1" d="M134.26,0.34l-1.01,31.92l34.61-31.92h14.29l-47.04,43.4h-16.18l1.15-43.4H134.26z"/>
		<path class="st1" d="M289.79,4.12c0.77,3.4-4.49,13.21-7.3,16.55c-3.37,4.15-6.38,4.91-10.1,6.09c1.3,0.49,2.14,0.81,2.76,1.35
			c2.67,2.48-1.29,8.79-3.26,12.35l-1.82,3.29h-13.16c2.74-4.96,5.03-8.63,4.24-10.03c-0.63-1.4-4.49-1.24-6-1.24h-18.17
			l-6.22,11.27H217.6l23.96-43.4h37.64C283.89,0.34,288.92,0.13,289.79,4.12z M262.01,21.32c1.83,0,5.84,0.16,8.52-2.05
			c1.33-1.13,3.35-4.8,3.39-6.15c0.07-2.48-4.26-2.16-6.09-2.16h-18.98l-5.72,10.35H262.01z"/>
		<path class="st1" d="M332.34,15.33c1.82-3.88,0.44-4.31-3.09-4.37h-14.72c-1.83,0-4.35-0.32-6.79,1.94
			c-0.82,0.7-1.72,2.53-1.73,3.23c0.17,1.94,4.14,1.78,6.84,1.78l15.92,0.38c3.9,0.16,12.59-0.54,12.55,5.01
			c-0.07,3.45-4.58,11.32-8.67,14.83c-6.41,5.55-16.31,5.61-20.78,5.61h-21.68c-2.59,0-8.26-0.38-8.82-4.64
			c-0.21-2.16,2.19-6.79,3.82-9.65h13c-1.88,3.99,0.62,3.67,3.1,3.67h15.42c1.83,0,5.6,0.11,7.59-1.35c0.93-0.7,1.73-2.16,1.85-3.34
			c0.12-1.78-3.43-1.51-7.09-1.62l-16.94-0.38c-4.18-0.05-11.3,0.05-11.14-5.12c0.04-3.4,5.1-12.56,8.97-15.96
			c6.33-5.5,12.37-5.01,18.46-5.01h22.43c3.51,0,8.32,0.65,8.7,4.74c0.29,2.21-3.09,8.03-4.31,10.24H332.34z"/>
		<path class="st1" d="M375.29,0.34l-23.96,43.4h-13.16l23.96-43.4H375.29z"/>
		<path class="st1" d="M426.89,0.34l-5.86,10.62h-31.39l-4.35,7.87h29.93l-5.51,9.97h-29.93l-8.25,14.94h-13.16l23.96-43.4H426.89z"
			/>
		<path class="st1" d="M446.66,0.34l-23.96,43.4h-13.16l23.96-43.4H446.66z"/>
		<path class="st1" d="M549.79,0.34c4.91,0,11.77-0.32,13.71,3.99c1.64,3.77-1.01,8.57-3.78,13.59l-4.73,8.57
			c-2.26,4.1-5.16,9.54-10.85,13.21c-6.13,3.88-14.15,4.04-18.52,4.04h-37.64l23.96-43.4H549.79z M526.84,33.13
			c4.75,0,7.99,0.27,12.06-3.18c2.29-1.99,8.84-13.96,8.92-15.96c0.04-3.4-4.91-3.02-9.55-3.02h-19.04l-12.23,22.16H526.84z"/>
		<polygon class="st0" points="79.5,43.75 92.77,43.75 116.15,0.35 100.36,0.34 84.85,11.16 97.23,11.14 		"/>
		<g>
			<polygon class="st1" points="430,43.4 479.84,43.4 485.6,33.68 435.76,33.68 			"/>
			<polygon class="st1" points="455.69,0 449.94,9.73 496.94,9.73 502.7,0 			"/>
			<polygon class="st1" points="440.06,26.41 488.04,26.41 493.8,16.69 445.81,16.69 			"/>
		</g>
		<g>
			<polygon class="st1" points="161.45,43.4 211.28,43.4 217.04,33.68 167.2,33.68 			"/>
			<polygon class="st1" points="187.14,0 181.38,9.73 228.38,9.73 234.14,0 			"/>
			<polygon class="st1" points="171.5,26.41 219.48,26.41 225.24,16.69 177.26,16.69 			"/>
		</g>
	</g>
</g>
</svg>
