<?xml version="1.0" encoding="utf-8"?>
<!-- Generator: Adobe Illustrator 24.0.1, SVG Export Plug-In . SVG Version: 6.00 Build 0)  -->
<svg version="1.1" id="Layer_1" xmlns="http://www.w3.org/2000/svg" xmlns:xlink="http://www.w3.org/1999/xlink" x="0px" y="0px"
	 viewBox="0 0 796 111.42" style="enable-background:new 0 0 796 111.42;" xml:space="preserve">
<style type="text/css">
	.st0{fill:#AFB1B3;}
	.st1{fill:#1171A4;}
</style>
<path class="st0" d="M13.7,92.25l-5.05,9.4c-0.65,1.21-1.96,3.38-1.55,4.31c0.44,0.9,2.04,0.76,2.88,0.76h4.71
	c0.52,0,2.04,0.14,3.37-0.74c1.2-0.81,1.93-2.45,2.87-4.19l5.12-9.55h5.81l-6.09,11.36c-1.16,2.17-2.08,4.28-4.74,6.05
	c-2.83,1.86-5.13,1.76-7.63,1.76H4.83c-2.05,0-3.78,0.17-4.64-1.79c-0.8-1.88,1.14-5.14,1.95-6.64L7.9,92.25H13.7z"/>
<path class="st0" d="M82.21,96.94h-8.24l-7.77,14.48H60.4l7.77-14.48H60.1l2.52-4.69h22.11L82.21,96.94z"/>
<path class="st0" d="M121.43,92.25l-10.28,19.16h-5.81l10.28-19.16H121.43z"/>
<path class="st0" d="M158.97,92.25l-7.77,14.47h13.09l-2.52,4.69h-18.9l10.28-19.16H158.97z"/>
<path class="st0" d="M208.78,92.25l-10.28,19.16h-5.81l10.28-19.16H208.78z"/>
<path class="st0" d="M259.18,96.94h-8.24l-7.77,14.48h-5.81l7.77-14.48h-8.07l2.52-4.69h22.11L259.18,96.94z"/>
<path class="st0" d="M298.16,92.25l2.13,7.83l10.75-7.83h6.81l-17.36,12.57l-3.54,6.59h-5.76l3.63-6.76l-3.6-12.4H298.16z"/>
<path class="st0" d="M396.2,98.87c0.78-1.71,0.17-1.9-1.39-1.93h-6.5c-0.81,0-1.92-0.14-2.98,0.86c-0.36,0.31-0.74,1.12-0.74,1.43
	c0.09,0.86,1.84,0.79,3.03,0.79l7.03,0.17c1.72,0.07,5.55-0.24,5.57,2.21c-0.01,1.52-1.95,5-3.72,6.55
	c-2.79,2.45-7.16,2.48-9.14,2.48h-9.57c-1.14,0-3.65-0.17-3.92-2.05c-0.11-0.95,0.92-3,1.62-4.26h5.73c-0.8,1.76,0.3,1.62,1.39,1.62
	h6.81c0.81,0,2.47,0.05,3.34-0.6c0.4-0.31,0.75-0.95,0.79-1.47c0.04-0.79-1.52-0.67-3.14-0.72l-7.48-0.16
	c-1.84-0.03-4.99,0.02-4.95-2.26c0-1.5,2.17-5.55,3.85-7.05c2.75-2.43,5.42-2.21,8.11-2.21h9.9c1.55,0,3.68,0.28,3.88,2.09
	c0.14,0.97-1.31,3.55-1.83,4.52H396.2z"/>
<path class="st0" d="M458.54,92.25l-2.52,4.69H441.1l-1.62,3.02h14.16l-2.06,3.83h-14.16l-1.57,2.93h15.28l-2.52,4.69h-21.09
	l10.28-19.16H458.54z"/>
<path class="st0" d="M511.87,93.92c0.36,1.5-1.89,5.83-3.11,7.31c-1.46,1.83-2.78,2.17-4.42,2.69c0.57,0.21,0.95,0.36,1.22,0.6
	c1.2,1.1-0.51,3.88-1.35,5.45l-0.78,1.45h-5.81c1.18-2.19,2.16-3.81,1.81-4.43c-0.29-0.62-1.99-0.55-2.66-0.55h-8.02l-2.67,4.98
	h-5.81l10.28-19.16h16.61C509.24,92.25,511.46,92.15,511.87,93.92z M499.72,101.51c0.81,0,2.58,0.07,3.75-0.91
	c0.58-0.5,1.45-2.12,1.46-2.71c0.02-1.1-1.89-0.95-2.7-0.95h-8.38l-2.45,4.57H499.72z"/>
<path class="st0" d="M549.58,92.25l-0.23,14.09l15.06-14.09h6.31l-20.47,19.16h-7.14l0.21-19.16H549.58z"/>
<path class="st0" d="M607.13,92.25l-10.28,19.16h-5.81l10.28-19.16H607.13z"/>
<path class="st0" d="M653.77,99.15c1.04-2.12,0.15-2.19-1.69-2.22h-6.4c-1.07,0-2.46-0.17-3.85,1.19c-0.81,0.81-3.9,6.47-3.81,7.33
	c0.13,1.45,1.63,1.26,3.01,1.26h5c1.67,0,2.94,0.12,4.22-1.02c0.42-0.38,0.68-0.83,1.19-1.69h5.83c-0.43,0.81-2.2,4.45-4.33,5.86
	c-2.28,1.55-4.5,1.55-6.11,1.55h-9.57c-2.36,0-5.2,0.02-6.03-1.71c-0.82-1.81,0.32-3.88,1.9-6.83l1.17-2.19
	c1.3-2.43,2.51-4.86,5.27-6.67c2.66-1.71,6.09-1.76,8.11-1.76h9.36c2.4,0,4.26,0.21,4.35,2.4c0.02,0.81-1.09,3.19-1.82,4.5H653.77z"
	/>
<path class="st0" d="M715.98,92.25l-2.52,4.69h-14.92l-1.62,3.02h14.16l-2.06,3.83h-14.16l-1.57,2.93h15.28l-2.52,4.69h-21.09
	l10.28-19.16H715.98z"/>
<path class="st0" d="M761.7,98.87c0.78-1.71,0.17-1.9-1.39-1.93h-6.5c-0.81,0-1.92-0.14-2.98,0.86c-0.36,0.31-0.74,1.12-0.74,1.43
	c0.09,0.86,1.84,0.79,3.03,0.79l7.03,0.17c1.72,0.07,5.55-0.24,5.57,2.21c-0.01,1.52-1.94,5-3.72,6.55
	c-2.79,2.45-7.16,2.48-9.14,2.48h-9.57c-1.14,0-3.65-0.17-3.92-2.05c-0.11-0.95,0.92-3,1.62-4.26h5.73c-0.8,1.76,0.3,1.62,1.39,1.62
	h6.81c0.81,0,2.47,0.05,3.34-0.6c0.4-0.31,0.75-0.95,0.79-1.47c0.04-0.79-1.52-0.67-3.14-0.72l-7.48-0.16
	c-1.84-0.03-4.99,0.02-4.95-2.26c0-1.5,2.17-5.55,3.85-7.05c2.75-2.43,5.42-2.21,8.11-2.21h9.9c1.55,0,3.68,0.28,3.88,2.09
	c0.14,0.97-1.31,3.55-1.83,4.52H761.7z"/>
<path class="st1" d="M97.84,0.49c6.93,0,16.62-0.46,19.34,5.63c2.31,5.33-1.43,12.1-5.34,19.18l-6.68,12.1
	c-3.19,5.78-7.28,13.47-15.32,18.64c-8.66,5.48-19.97,5.71-26.14,5.71H10.59L44.41,0.49H97.84z M65.44,46.75
	c6.7,0,11.28,0.38,17.02-4.49c3.23-2.81,12.48-19.71,12.59-22.52c0.06-4.79-6.93-4.26-13.48-4.26H54.7L37.44,46.75H65.44z"/>
<path class="st1" d="M189.49,0.49l-1.43,45.05L236.9,0.49h20.17l-66.39,61.26h-22.83l1.63-61.26H189.49z"/>
<path class="st1" d="M408.99,5.81c1.08,4.79-6.33,18.64-10.31,23.36c-4.76,5.86-9,6.92-14.26,8.6c1.83,0.69,3.02,1.14,3.9,1.9
	c3.77,3.5-1.83,12.4-4.6,17.43l-2.56,4.64h-18.57c3.87-7,7.1-12.18,5.99-14.15c-0.89-1.98-6.34-1.75-8.47-1.75h-25.65l-8.78,15.9
	H307.1l33.82-61.26h53.12C400.67,0.49,407.77,0.18,408.99,5.81z M369.79,30.09c2.59,0,8.25,0.23,12.02-2.89
	c1.87-1.6,4.73-6.77,4.79-8.68c0.11-3.5-6.01-3.04-8.59-3.04h-26.79l-8.07,14.61H369.79z"/>
<path class="st1" d="M469.05,21.64c2.57-5.48,0.62-6.09-4.36-6.16h-20.78c-2.59,0-6.14-0.46-9.58,2.74
	c-1.16,0.99-2.43,3.58-2.44,4.57c0.24,2.74,5.84,2.51,9.65,2.51L464,25.83c5.51,0.23,17.77-0.76,17.71,7.08
	c-0.1,4.87-6.46,15.98-12.24,20.93c-9.05,7.84-23.02,7.91-29.33,7.91h-30.6c-3.65,0-11.66-0.53-12.45-6.54
	c-0.3-3.04,3.09-9.59,5.39-13.62h18.34c-2.65,5.63,0.87,5.17,4.37,5.17h21.77c2.59,0,7.91,0.15,10.72-1.9
	c1.31-0.99,2.44-3.04,2.6-4.72c0.17-2.51-4.84-2.13-10-2.28l-23.91-0.53c-5.89-0.08-15.95,0.08-15.72-7.23
	c0.06-4.79,7.2-17.73,12.66-22.52c8.93-7.76,17.45-7.08,26.05-7.08h31.66c4.95,0,11.75,0.91,12.29,6.7
	c0.41,3.12-4.36,11.34-6.08,14.46H469.05z"/>
<path class="st1" d="M529.66,0.49l-33.82,61.26h-18.57l33.82-61.26H529.66z"/>
<path class="st1" d="M602.49,0.49l-8.28,14.99h-44.3l-6.13,11.11h42.24l-7.77,14.08h-42.24l-11.64,21.08H505.8l33.82-61.26H602.49z"
	/>
<path class="st1" d="M630.39,0.49l-33.82,61.26H578l33.82-61.26H630.39z"/>
<path class="st1" d="M775.95,0.49c6.93,0,16.62-0.46,19.34,5.63c2.31,5.33-1.43,12.1-5.34,19.18l-6.68,12.1
	c-3.19,5.78-7.28,13.47-15.32,18.64c-8.66,5.48-19.97,5.71-26.14,5.71H688.7l33.82-61.26H775.95z M743.55,46.75
	c6.7,0,11.28,0.38,17.02-4.49c3.23-2.81,12.48-19.71,12.59-22.52c0.06-4.79-6.93-4.26-13.48-4.26h-26.87l-17.27,31.27H743.55z"/>
<polygon class="st0" points="112.21,61.74 130.93,61.74 163.93,0.5 141.64,0.49 119.75,15.75 137.23,15.73 "/>
<g>
	<polygon class="st1" points="606.88,61.26 677.22,61.26 685.35,47.53 615.01,47.53 	"/>
	<polygon class="st1" points="643.14,0 635.02,13.73 701.35,13.73 709.48,0 	"/>
	<polygon class="st1" points="621.08,37.28 688.79,37.28 696.92,23.55 629.2,23.55 	"/>
</g>
<g>
	<polygon class="st1" points="227.86,61.26 298.2,61.26 306.32,47.53 235.98,47.53 	"/>
	<polygon class="st1" points="264.11,0 255.99,13.73 322.33,13.73 330.45,0 	"/>
	<polygon class="st1" points="242.05,37.28 309.76,37.28 317.89,23.55 250.17,23.55 	"/>
</g>
</svg>
